<svg xmlns="http://www.w3.org/2000/svg" width="19" height="19"><path d="M 4.5 10 C 4.776 10 5 9.776 5 9.5 L 5 4 C 5 3.448 5.448 3 6 3 L 6 3 C 6.552 3 7 3.448 7 4 L 7 9.5 C 7 9.776 7.224 10 7.5 10 L 7.5 10 C 7.776 10 8 9.776 8 9.5 L 8 3 C 8 2.448 8.448 2 9 2 L 9 2 C 9.552 2 10 2.448 10 3 L 10 9.5 C 10 9.776 10.224 10 10.5 10 L 10.5 10 C 10.776 10 11 9.776 11 9.5 L 11 4 C 11 3.448 11.448 3 12 3 L 12 3 C 12.552 3 13 3.448 13 4 L 13 9.5 C 13 9.776 13.224 10 13.5 10 L 13.5 10 C 13.776 10 14 9.776 14 9.5 L 14 6 C 14 5.448 14.448 5 15 5 L 15 5 C 15.552 5 16 5.448 16 6 L 16 12.545 C 16 15.006 14.006 17 11.545 17 L 8 17 C 4.686 17 2 14.314 2 11 L 2 11 L 2 9 C 2 8.448 2.448 8 3 8 L 3 8 C 3.552 8 4 8.448 4 9 L 4 9.5 C 4 9.776 4.224 10 4.5 10 Z" fill="#FFFFFF"></path></svg>