<svg xmlns="http://www.w3.org/2000/svg" width="21" height="21"><g><path d="M 4 0 L 5 0 L 5 4 L 16 4 L 16 0 L 17 0 L 17 4 L 21 4 L 21 5 L 17 5 L 17 16 L 21 16 L 21 17 L 17 17 L 17 21 L 16 21 L 16 17 L 5 17 L 5 21 L 4 21 L 4 17 L 0 17 L 0 16 L 4 16 L 4 5 L 0 5 L 0 4 L 4 4 Z M 16 5 L 5 5 L 5 16 L 16 16 Z" fill="rgba(51, 51, 51, 1.00)"></path><path d="M 5 5 L 16 5 L 16 16 L 5 16 Z" fill="rgba(51, 51, 51, 1.00)" opacity="0.25"></path><path d="M 4 4 L 17 4 L 17 8 L 16 8 L 16 5 L 11 5 L 11 16 L 14 16 L 14 17 L 7 17 L 7 16 L 10 16 L 10 5 L 5 5 L 5 8 L 4 8 Z" fill="rgba(170, 170, 170, 1.00)"></path></g></svg>