<svg xmlns="http://www.w3.org/2000/svg" width="19" height="15"><path d="M 7 0.5 L 5.5 0.5 C 4.395 0.5 3.5 1.395 3.5 2.5 L 3.5 4.672 C 3.5 5.202 3.289 5.711 2.914 6.086 L 1.5 7.5 L 2.914 8.914 C 3.289 9.289 3.5 9.798 3.5 10.328 L 3.5 12.5 C 3.5 13.605 4.395 14.5 5.5 14.5 L 7 14.5" fill="transparent" stroke="#09f"></path><path d="M 12 0.5 L 13.5 0.5 C 14.605 0.5 15.5 1.395 15.5 2.5 L 15.5 4.672 C 15.5 5.202 15.711 5.711 16.086 6.086 L 17.5 7.5 L 16.086 8.914 C 15.711 9.289 15.5 9.798 15.5 10.328 L 15.5 12.5 C 15.5 13.605 14.605 14.5 13.5 14.5 L 12 14.5" fill="transparent" stroke="#09f"></path></svg>