<svg xmlns="http://www.w3.org/2000/svg" width="19" height="19"><path d="M 9.5 2 C 13.642 2 17 5.358 17 9.5 C 17 13.642 13.642 17 9.5 17 C 5.358 17 2 13.642 2 9.5 C 2 5.358 5.358 2 9.5 2 Z M 4 9.5 C 4 12.538 6.462 15 9.5 15 C 12.538 15 15 12.538 15 9.5 C 15 6.462 12.538 4 9.5 4 C 6.462 4 4 6.462 4 9.5 Z" fill="rgba(255, 255, 255, 1.00)" opacity="0.5"></path><path d="M 9.5 5 C 11.985 5 14 7.015 14 9.5 C 14 11.985 11.985 14 9.5 14 C 7.015 14 5 11.985 5 9.5 C 5 7.015 7.015 5 9.5 5 Z" fill="#FFFFFF"></path></svg>