<svg xmlns="http://www.w3.org/2000/svg" xmlns:xlink="http://www.w3.org/1999/xlink" width="21" height="21"><g><path d="M 4 0 L 5 0 L 5 4 L 16 4 L 16 0 L 17 0 L 17 4 L 21 4 L 21 5 L 17 5 L 17 16 L 21 16 L 21 17 L 17 17 L 17 21 L 16 21 L 16 17 L 5 17 L 5 21 L 4 21 L 4 17 L 0 17 L 0 16 L 4 16 L 4 5 L 0 5 L 0 4 L 4 4 Z M 16 5 L 5 5 L 5 16 L 16 16 Z" fill="rgba(51, 51, 51, 1.00)"></path><g><defs><path d="M 4 4 L 17 4 L 17 17 L 4 17 Z" id="a1046z"></path><clipPath id="a1047z"><use xlink:href="#a1046z"></use></clipPath></defs><use xlink:href="#a1046z" fill="rgba(68, 68, 68, 1.00)" clip-path="url(#a1047z)" stroke-width="2" stroke="rgba(170, 170, 170, 1.00)"></use></g></g></svg>