<svg xmlns="http://www.w3.org/2000/svg" width="10" height="36"><g transform="translate(1 1)"><path d="M 2.5 0 L 7 0 L 7 1 L 3 1 L 3 5 L 2 5 L 2 0 Z M 2.5 34 L 7 34 L 7 33 L 3 33 L 3 29 L 2 29 L 2 34 Z" fill="rgb(221,221,221)"></path><g transform="translate(0 12.5)"><path d="M 0 4.5 L 6 4.5 L 6 7.5 C 6 8.052 5.552 8.5 5 8.5 L 1 8.5 C 0.448 8.5 0 8.052 0 7.5 Z" fill="rgba(194, 194, 194, 1.00)"></path><path d="M 0.5 4.5 C 0.5 4.5 0.5 3.881 0.5 2.5 C 0.5 1.119 1.619 0 3 0 C 3.69 0 4.315 0.28 4.768 0.732 C 4.994 0.958 5.177 1.228 5.304 1.527" fill="transparent" stroke="rgba(194, 194, 194, 1.00)"></path></g></g></svg>