<svg xmlns="http://www.w3.org/2000/svg" xmlns:xlink="http://www.w3.org/1999/xlink" width="19" height="11"><path d="M 1.5 11 L 1.5 10.5 C 1.5 6.082 5.082 2.5 9.5 2.5 L 9.5 2.5 L 17.5 10.5" fill="rgba(178, 229, 255, 0.75)" stroke="rgb(0, 170, 255)"></path><g><defs><path d="M 0 1 L 3 1 L 3 4 L 0 4 Z" id="shape-id-er9xGzftd"></path><clipPath id="shape-id-er9xGzftd-clip"><use xlink:href="#shape-id-er9xGzftd"></use></clipPath></defs><use xlink:href="#shape-id-er9xGzftd" fill="hsl(0, 0%, 100%)" clip-path="url(#shape-id-er9xGzftd-clip)" stroke-width="2" stroke="#0099FF"></use></g><path d="M 2.5 2.5 L 7.5 2.5" fill="transparent" stroke="rgb(0, 170, 255)"></path><path d="M 3 10 L 16 10 L 16 11 L 2 11 Z" fill="rgba(198, 236, 255, 1.00)"></path><g><defs><path d="M 9.5 0 C 10.881 0 12 1.119 12 2.5 C 12 3.881 10.881 5 9.5 5 C 8.119 5 7 3.881 7 2.5 C 7 1.119 8.119 0 9.5 0 Z" id="shape-id-De6nD4ZjD"></path><clipPath id="shape-id-De6nD4ZjD-clip"><use xlink:href="#shape-id-De6nD4ZjD"></use></clipPath></defs><use xlink:href="#shape-id-De6nD4ZjD" fill="hsl(0, 0%, 100%)" clip-path="url(#shape-id-De6nD4ZjD-clip)" stroke-width="2" stroke="#0099FF"></use></g><g><defs><path d="M 15 8 L 18 8 L 18 11 L 15 11 Z" id="shape-id-KsKLPT2SU"></path><clipPath id="shape-id-KsKLPT2SU-clip"><use xlink:href="#shape-id-KsKLPT2SU"></use></clipPath></defs><use xlink:href="#shape-id-KsKLPT2SU" fill="hsl(0, 0%, 100%)" clip-path="url(#shape-id-KsKLPT2SU-clip)" stroke-width="2" stroke="#0099FF"></use></g></svg>