<svg xmlns="http://www.w3.org/2000/svg" width="15" height="13"><path d="M 6 0 L 9 0 L 9 13 L 6 13 Z" fill="#cef"></path><path d="M 6 0.5 L 4.5 0.5 C 3.395 0.5 2.5 1.395 2.5 2.5 L 2.5 4.172 C 2.5 4.702 2.289 5.211 1.914 5.586 L 1 6.5 L 1.914 7.414 C 2.289 7.789 2.5 8.298 2.5 8.828 L 2.5 10.5 C 2.5 11.605 3.395 12.5 4.5 12.5 L 6 12.5" fill="#cef" stroke="#09f"></path><path d="M 9 0.5 L 10.5 0.5 C 11.605 0.5 12.5 1.395 12.5 2.5 L 12.5 4.172 C 12.5 4.702 12.711 5.211 13.086 5.586 L 14 6.5 L 13.086 7.414 C 12.711 7.789 12.5 8.298 12.5 8.828 L 12.5 10.5 C 12.5 11.605 11.605 12.5 10.5 12.5 L 9 12.5" fill="#cef" stroke="#09f"></path></svg>