<svg xmlns="http://www.w3.org/2000/svg" width="15" height="15"><path d="M 0 2 C 0 0.895 0.895 0 2 0 L 13 0 C 14.105 0 15 0.895 15 2 L 15 13 C 15 14.105 14.105 15 13 15 L 2 15 C 0.895 15 0 14.105 0 13 Z" fill="#f9f9f9"></path><path d="M 0 2 C 0 0.895 0.895 0 2 0 L 4 0 L 4 1 L 2 1 C 1.448 1 1 1.448 1 2 L 1 4 L 0 4 Z M 1 13 C 1 13.552 1.448 14 2 14 L 4 14 L 4 15 L 2 15 C 0.895 15 0 14.105 0 13 L 0 11 L 1 11 Z M 0 6 L 1 6 L 1 9 L 0 9 Z M 9 0 L 9 1 L 6 1 L 6 0 Z M 9 14 L 9 15 L 6 15 L 6 14 Z M 13 0 C 14.105 0 15 0.895 15 2 L 15 4 L 14 4 L 14 2 C 14 1.448 13.552 1 13 1 L 11 1 L 11 0 Z M 15 13 C 15 14.105 14.105 15 13 15 L 11 15 L 11 14 L 13 14 C 13.552 14 14 13.552 14 13 L 14 11 L 15 11 Z M 14 6 L 15 6 L 15 9 L 14 9 Z" fill="#ddd"></path></svg>