<svg xmlns="http://www.w3.org/2000/svg" xmlns:xlink="http://www.w3.org/1999/xlink" width="10" height="11" viewBox="0 0 10 11">
  <defs>
    <path id="a" d="M6,3 L8,3 C8.55228475,3 9,3.44771525 9,4 L9,8 C9,8.55228475 8.55228475,9 8,9 L4,9 C3.44771525,9 3,8.55228475 3,8 L3,6 L1,6 C0.44771525,6 6.76353751e-17,5.55228475 0,5 L0,1 C-6.76353751e-17,0.44771525 0.44771525,1.01453063e-16 1,0 L5,0 C5.55228475,-1.01453063e-16 6,0.44771525 6,1 L6,3 Z"/>
  </defs>
  <g fill="none" fill-rule="evenodd">
    <use fill="#FFFFFF" xlink:href="#a"/>
    <path stroke="#AFAFAF" d="M8,3.5 L5.5,3.5 L5.5,1 C5.5,0.723857625 5.27614237,0.5 5,0.5 L1,0.5 C0.723857625,0.5 0.5,0.723857625 0.5,1 L0.5,5 C0.5,5.27614237 0.723857625,5.5 1,5.5 L3.5,5.5 L3.5,8 C3.5,8.27614237 3.72385763,8.5 4,8.5 L8,8.5 C8.27614237,8.5 8.5,8.27614237 8.5,8 L8.5,4 C8.5,3.72385763 8.27614237,3.5 8,3.5 Z"/>
  </g>
</svg>
