<svg xmlns="http://www.w3.org/2000/svg" xmlns:xlink="http://www.w3.org/1999/xlink" width="13" height="13" viewBox="0 0 13 13">
  <defs>
    <path id="a" d="M9,4 L9,0 L0,0 L0,9 L4,9 L4,13 L13,13 L13,4 L9,4 Z"/>
  </defs>
  <g fill="none" fill-rule="evenodd">
    <use fill="#EEEEEE" xlink:href="#a"/>
    <path stroke="#CCCCCC" d="M8.5,0.5 L0.5,0.5 L0.5,8.5 L4.5,8.5 L4.5,12.5 L12.5,12.5 L12.5,4.5 L8.5,4.5 L8.5,0.5 Z"/>
    <path fill="#CCCCCC" d="M4 5L5 5 5 8 4 8 4 5zM4 4L8 4 8 5 4 5 4 4zM5 8L8 8 8 9 5 9 5 8zM8 5L9 5 9 9 8 9 8 5z"/>
  </g>
</svg>
