<svg xmlns="http://www.w3.org/2000/svg" xmlns:xlink="http://www.w3.org/1999/xlink" width="19" height="11"><path d="M 1.5 11 L 1.5 10.5 C 1.5 6.082 5.082 2.5 9.5 2.5 L 9.5 2.5 L 9.5 2.5 C 13.918 2.5 17.5 6.082 17.5 10.5 L 17.5 11" fill="rgba(238, 238, 238, 0.75)" stroke="rgba(204, 204, 204, 1.00)"></path><g><defs><path d="M 0 1 L 3 1 L 3 4 L 0 4 Z" id="shape-id-GR2oTnfg_"></path><clipPath id="shape-id-GR2oTnfg_-clip"><use xlink:href="#shape-id-GR2oTnfg_"></use></clipPath></defs><use xlink:href="#shape-id-GR2oTnfg_" fill="rgba(255, 255, 255, 1.00)" clip-path="url(#shape-id-GR2oTnfg_-clip)" stroke-width="2" stroke="rgba(204, 204, 204, 1.00)"></use></g><g><defs><path d="M 16 1 L 19 1 L 19 4 L 16 4 Z" id="shape-id-si7oPrwHI"></path><clipPath id="shape-id-si7oPrwHI-clip"><use xlink:href="#shape-id-si7oPrwHI"></use></clipPath></defs><use xlink:href="#shape-id-si7oPrwHI" fill="rgba(255, 255, 255, 1.00)" clip-path="url(#shape-id-si7oPrwHI-clip)" stroke-width="2" stroke="rgba(204, 204, 204, 1.00)"></use></g><path d="M 2 2.5 L 17 2.5" fill="transparent" stroke="rgba(204, 204, 204, 1.00)"></path><g><defs><path d="M 9.5 0 C 10.881 0 12 1.119 12 2.5 C 12 3.881 10.881 5 9.5 5 C 8.119 5 7 3.881 7 2.5 C 7 1.119 8.119 0 9.5 0 Z" id="shape-id-oPUzHgIfZ"></path><clipPath id="shape-id-oPUzHgIfZ-clip"><use xlink:href="#shape-id-oPUzHgIfZ"></use></clipPath></defs><use xlink:href="#shape-id-oPUzHgIfZ" fill="rgba(255, 255, 255, 1.00)" clip-path="url(#shape-id-oPUzHgIfZ-clip)" stroke-width="2" stroke="rgba(204, 204, 204, 1.00)"></use></g></svg>