<svg xmlns="http://www.w3.org/2000/svg" xmlns:xlink="http://www.w3.org/1999/xlink" width="10" height="10"><path d="M 0 1 L 2 1 C 5.866 1 9 4.134 9 8 L 9 10 L 3 10 C 1.343 10 0 8.657 0 7 Z" fill="rgba(238, 238, 238, 0.75)"></path><path d="M 0 0.5 L 1.5 0.5 C 5.918 0.5 9.5 4.082 9.5 8.5 L 9.5 10" fill="transparent" stroke="rgba(204, 204, 204, 1.00)"></path><g><defs><path d="M 2.5 5 C 3.881 5 5 6.119 5 7.5 C 5 8.881 3.881 10 2.5 10 C 1.119 10 0 8.881 0 7.5 C 0 6.119 1.119 5 2.5 5 Z" id="shape-id-SLylh0knj"></path><clipPath id="shape-id-SLylh0knj-clip"><use xlink:href="#shape-id-SLylh0knj"></use></clipPath></defs><use xlink:href="#shape-id-SLylh0knj" fill="rgba(255, 255, 255, 1.00)" clip-path="url(#shape-id-SLylh0knj-clip)" stroke-width="2" stroke="rgba(204, 204, 204, 1.00)"></use></g></svg>