<svg xmlns="http://www.w3.org/2000/svg" xmlns:xlink="http://www.w3.org/1999/xlink" width="15" height="15"><g><defs><path d="M 8 11 C 8 9.067 9.567 7.5 11.5 7.5 L 11.5 7.5 C 13.433 7.5 15 9.067 15 11 L 15 11 C 15 12.933 13.433 14.5 11.5 14.5 L 11.5 14.5 C 9.567 14.5 8 12.933 8 11 Z" id="a1008z"></path><clipPath id="a1009z"><use xlink:href="#a1008z"></use></clipPath></defs><use xlink:href="#a1008z" fill="transparent" clip-path="url(#a1009z)" stroke-width="2" stroke="#09f"></use></g><g><defs><path d="M 4 4 C 4 2.067 5.567 0.5 7.5 0.5 L 7.5 0.5 C 9.433 0.5 11 2.067 11 4 L 11 4 C 11 5.933 9.433 7.5 7.5 7.5 L 7.5 7.5 C 5.567 7.5 4 5.933 4 4 Z" id="a1010z"></path><clipPath id="a1011z"><use xlink:href="#a1010z"></use></clipPath></defs><use xlink:href="#a1010z" fill="transparent" clip-path="url(#a1011z)" stroke-width="2" stroke="#09f"></use></g><g><defs><path d="M 0 11 C 0 9.067 1.567 7.5 3.5 7.5 L 3.5 7.5 C 5.433 7.5 7 9.067 7 11 L 7 11 C 7 12.933 5.433 14.5 3.5 14.5 L 3.5 14.5 C 1.567 14.5 0 12.933 0 11 Z" id="a1012z"></path><clipPath id="a1013z"><use xlink:href="#a1012z"></use></clipPath></defs><use xlink:href="#a1012z" fill="transparent" clip-path="url(#a1013z)" stroke-width="2" stroke="#09f"></use></g></svg>
