<svg xmlns="http://www.w3.org/2000/svg" xmlns:xlink="http://www.w3.org/1999/xlink" width="21" height="21"><g><path d="M 0 0 L 1 0 L 1 1 L 0 1 Z M 4 0 L 5 0 L 5 1 L 4 1 Z M 8 0 L 9 0 L 9 1 L 8 1 Z M 12 0 L 13 0 L 13 1 L 12 1 Z M 16 0 L 17 0 L 17 1 L 16 1 Z M 20 0 L 21 0 L 21 1 L 20 1 Z M 0 20 L 1 20 L 1 21 L 0 21 Z M 4 20 L 5 20 L 5 21 L 4 21 Z M 8 20 L 9 20 L 9 21 L 8 21 Z M 12 20 L 13 20 L 13 21 L 12 21 Z M 16 20 L 17 20 L 17 21 L 16 21 Z M 20 20 L 21 20 L 21 21 L 20 21 Z M 0 8 L 1 8 L 1 9 L 0 9 Z M 4 8 L 5 8 L 5 9 L 4 9 Z M 8 8 L 9 8 L 9 9 L 8 9 Z M 20 8 L 21 8 L 21 9 L 20 9 Z M 0 12 L 1 12 L 1 13 L 0 13 Z M 4 12 L 5 12 L 5 13 L 4 13 Z M 20 12 L 21 12 L 21 13 L 20 13 Z M 0 16 L 1 16 L 1 17 L 0 17 Z M 20 16 L 21 16 L 21 17 L 20 17 Z M 20 4 L 21 4 L 21 5 L 20 5 Z M 12 4 L 13 4 L 13 5 L 12 5 Z M 8 4 L 9 4 L 9 5 L 8 5 Z M 4 4 L 5 4 L 5 5 L 4 5 Z M 0 4 L 1 4 L 1 5 L 0 5 Z" fill="rgba(187, 187, 187, 1.00)"></path><g><defs><path d="M 17 4 L 17 17 L 4 17 Z" id="a1188z"></path><clipPath id="a1189z"><use xlink:href="#a1188z"></use></clipPath></defs><use xlink:href="#a1188z" fill="rgba(238, 238, 238, 1.00)" clip-path="url(#a1189z)" stroke-width="2" stroke="rgba(85, 85, 85, 1.00)"></use></g></g></svg>