<svg xmlns="http://www.w3.org/2000/svg" xmlns:xlink="http://www.w3.org/1999/xlink" width="15" height="15"><g transform="translate(3 3)"><path d="M 7 2 L 2 7" fill="transparent" stroke="rgba(119, 119, 119, 1.00)"></path><g><defs><path d="M 7 0 C 8.105 0 9 0.895 9 2 C 9 3.105 8.105 4 7 4 C 5.895 4 5 3.105 5 2 C 5 0.895 5.895 0 7 0 Z" id="a1110z"></path><clipPath id="a1111z"><use xlink:href="#a1110z"></use></clipPath></defs><use xlink:href="#a1110z" fill="#eee" clip-path="url(#a1111z)" stroke-width="2" stroke="#777777"></use></g><g><defs><path d="M 2 5 C 3.105 5 4 5.895 4 7 C 4 8.105 3.105 9 2 9 C 0.895 9 0 8.105 0 7 C 0 5.895 0.895 5 2 5 Z" id="a1112z"></path><clipPath id="a1113z"><use xlink:href="#a1112z"></use></clipPath></defs><use xlink:href="#a1112z" fill="#eee" clip-path="url(#a1113z)" stroke-width="2" stroke="#777777"></use></g></g></svg>