<svg xmlns="http://www.w3.org/2000/svg" width="19" height="19"><path d="M 2 9.5 C 2 5.358 5.358 2 9.5 2 C 13.642 2 17 5.358 17 9.5 C 17 13.642 13.642 17 9.5 17 L 3.727 17 C 2.773 17 2 16.227 2 15.273 Z M 8.239 9.632 C 8.239 10.372 8.839 10.972 9.579 10.972 C 10.318 10.972 10.918 10.372 10.918 9.632 C 10.918 8.893 10.318 8.293 9.579 8.293 C 8.839 8.293 8.239 8.893 8.239 9.632 Z M 4.26 9.632 C 4.26 10.372 4.859 10.972 5.599 10.972 C 6.339 10.972 6.938 10.372 6.938 9.632 C 6.938 8.893 6.339 8.293 5.599 8.293 C 4.859 8.293 4.26 8.893 4.26 9.632 Z M 12.219 9.632 C 12.219 10.372 12.819 10.972 13.558 10.972 C 14.298 10.972 14.898 10.372 14.898 9.632 C 14.898 8.893 14.298 8.293 13.558 8.293 C 12.819 8.293 12.219 8.893 12.219 9.632 Z" fill="#FFFFFF"></path></svg>