<svg xmlns="http://www.w3.org/2000/svg" width="19" height="19"><path d="M 4.5 11 C 4.776 11 5 10.776 5 10.5 L 5 3 C 5 2.448 5.448 2 6 2 L 6 2 C 6.552 2 7 2.448 7 3 L 7 10.5 C 7 10.776 7.224 11 7.5 11 L 7.5 11 C 7.776 11 8 10.776 8 10.5 L 8 2 C 8 1.448 8.448 1 9 1 L 9 1 C 9.552 1 10 1.448 10 2 L 10 10.5 C 10 10.776 10.224 11 10.5 11 L 10.5 11 C 10.776 11 11 10.776 11 10.5 L 11 3 C 11 2.448 11.448 2 12 2 L 12 2 C 12.552 2 13 2.448 13 3 L 13 10.5 C 13 10.776 13.224 11 13.5 11 L 13.5 11 C 13.776 11 14 10.776 14 10.5 L 14 5 C 14 4.448 14.448 4 15 4 L 15 4 C 15.552 4 16 4.448 16 5 L 16 13.545 C 16 16.006 14.006 18 11.545 18 L 9 18 C 5.134 18 2 14.866 2 11 L 2 11 L 2 9 C 2 8.448 2.448 8 3 8 L 3 8 C 3.552 8 4 8.448 4 9 L 4 10.5 C 4 10.776 4.224 11 4.5 11 Z" fill="#09f"></path></svg>