<svg xmlns="http://www.w3.org/2000/svg" width="13" height="13" viewBox="0 0 13 13">
  <path fill="#0099FF" fill-rule="evenodd" d="M9.72663488,9.0195281 L12.8535534,12.1464466 L13,13 L12.1464466,12.8535534 L9.0195281,9.72663488 C8.06578116,10.5216883 6.83874843,11 5.5,11 C2.46243388,11 0,8.53756612 0,5.5 C0,2.46243388 2.46243388,0 5.5,0 C8.53756612,0 11,2.46243388 11,5.5 C11,6.83874843 10.5216883,8.06578116 9.72663488,9.0195281 Z M5.5,10 C7.98528137,10 10,7.98528137 10,5.5 C10,3.01471863 7.98528137,1 5.5,1 C3.01471863,1 1,3.01471863 1,5.5 C1,7.98528137 3.01471863,10 5.5,10 Z"/>
</svg>
