<svg xmlns="http://www.w3.org/2000/svg" width="19" height="19"><path d="M 2 3 C 2 2.448 2.448 2 3 2 L 16 2 C 16.552 2 17 2.448 17 3 L 17 4 C 17 4.552 16.552 5 16 5 L 3 5 C 2.448 5 2 4.552 2 4 Z" fill="rgba(255, 255, 255, 1.00)"></path><path d="M 3 7 C 3 6.448 3.448 6 4 6 L 15 6 C 15.552 6 16 6.448 16 7 L 16 8 C 16 8.552 15.552 9 15 9 L 4 9 C 3.448 9 3 8.552 3 8 Z" fill="rgba(255, 255, 255, 1.00)" opacity="0.75"></path><path d="M 4 11 C 4 10.448 4.448 10 5 10 L 14 10 C 14.552 10 15 10.448 15 11 L 15 12 C 15 12.552 14.552 13 14 13 L 5 13 C 4.448 13 4 12.552 4 12 Z" fill="rgba(255, 255, 255, 1.00)" opacity="0.5"></path><path d="M 5 15 C 5 14.448 5.448 14 6 14 L 13 14 C 13.552 14 14 14.448 14 15 L 14 16 C 14 16.552 13.552 17 13 17 L 6 17 C 5.448 17 5 16.552 5 16 Z" fill="rgba(255, 255, 255, 1.00)" opacity="0.25"></path></svg>