<svg xmlns="http://www.w3.org/2000/svg" xmlns:xlink="http://www.w3.org/1999/xlink" width="19" height="19"><path d="M 0.5 15.5 L 7 9" fill="transparent" stroke="#FFFFFF" stroke-linecap="round" stroke-linejoin="round"></path><g><defs><path d="M 9.5 3 C 11.433 3 13 4.567 13 6.5 C 13 8.433 11.433 10 9.5 10 C 7.567 10 6 8.433 6 6.5 C 6 4.567 7.567 3 9.5 3 Z" id="a1494z"></path><clipPath id="a1495z"><use xlink:href="#a1494z"></use></clipPath></defs><use xlink:href="#a1494z" fill="rgba(255, 255, 255, 0.1)" clip-path="url(#a1495z)" stroke-width="2" stroke="#FFFFFF"></use></g><g><defs><path d="M 9.5 3 C 11.433 3 13 4.567 13 6.5 C 13 8.433 11.433 10 9.5 10 C 7.567 10 6 8.433 6 6.5 C 6 4.567 7.567 3 9.5 3 Z" id="a1496z"></path><clipPath id="a1497z"><use xlink:href="#a1496z"></use></clipPath></defs><use xlink:href="#a1496z" fill="transparent" clip-path="url(#a1497z)" stroke-width="2" stroke="#FFFFFF"></use></g><path d="M 11.5 8.5 L 17 14" fill="transparent" stroke="#FFFFFF"></path><path d="M 1.5 5 C 2.328 5 3 5.672 3 6.5 C 3 7.328 2.328 8 1.5 8 C 0.672 8 0 7.328 0 6.5 C 0 5.672 0.672 5 1.5 5 Z" fill="rgb(255, 255, 255)"></path><path d="M 17.5 13 C 18.328 13 19 13.672 19 14.5 C 19 15.328 18.328 16 17.5 16 C 16.672 16 16 15.328 16 14.5 C 16 13.672 16.672 13 17.5 13 Z" fill="rgb(255, 255, 255)"></path><path d="M 2.5 6.5 L 6.5 6.5" fill="transparent" stroke="rgba(255, 255, 255, 1.00)"></path></svg>