<svg xmlns="http://www.w3.org/2000/svg" xmlns:xlink="http://www.w3.org/1999/xlink" width="19" height="11"><path d="M 1.5 11 L 1.5 10.5 C 1.5 6.082 5.082 2.5 9.5 2.5 L 9.5 2.5 L 17.5 10.5" fill="rgba(238, 238, 238, 0.75)" stroke="rgba(204, 204, 204, 1.00)"></path><g><defs><path d="M 0 1 L 3 1 L 3 4 L 0 4 Z" id="shape-id-qIJpX89Yg"></path><clipPath id="shape-id-qIJpX89Yg-clip"><use xlink:href="#shape-id-qIJpX89Yg"></use></clipPath></defs><use xlink:href="#shape-id-qIJpX89Yg" fill="rgba(255, 255, 255, 1.00)" clip-path="url(#shape-id-qIJpX89Yg-clip)" stroke-width="2" stroke="rgba(204, 204, 204, 1.00)"></use></g><path d="M 2.5 2.5 L 7.5 2.5" fill="transparent" stroke="rgba(204, 204, 204, 1.00)"></path><path d="M 3 10 L 16 10 L 16 11 L 2 11 Z" fill="rgba(242, 242, 242, 1.00)"></path><g><defs><path d="M 9.5 0 C 10.881 0 12 1.119 12 2.5 C 12 3.881 10.881 5 9.5 5 C 8.119 5 7 3.881 7 2.5 C 7 1.119 8.119 0 9.5 0 Z" id="shape-id-gtPMvM3gc"></path><clipPath id="shape-id-gtPMvM3gc-clip"><use xlink:href="#shape-id-gtPMvM3gc"></use></clipPath></defs><use xlink:href="#shape-id-gtPMvM3gc" fill="rgba(255, 255, 255, 1.00)" clip-path="url(#shape-id-gtPMvM3gc-clip)" stroke-width="2" stroke="rgba(204, 204, 204, 1.00)"></use></g><g><defs><path d="M 15 8 L 18 8 L 18 11 L 15 11 Z" id="shape-id-mPnutgig3"></path><clipPath id="shape-id-mPnutgig3-clip"><use xlink:href="#shape-id-mPnutgig3"></use></clipPath></defs><use xlink:href="#shape-id-mPnutgig3" fill="rgba(255, 255, 255, 1.00)" clip-path="url(#shape-id-mPnutgig3-clip)" stroke-width="2" stroke="rgba(204, 204, 204, 1.00)"></use></g></svg>