<svg xmlns="http://www.w3.org/2000/svg" xmlns:xlink="http://www.w3.org/1999/xlink" width="19" height="11"><path d="M 1.5 11 L 1.5 10.5 C 1.5 6.082 5.082 2.5 9.5 2.5 L 9.5 2.5 L 9.5 2.5 C 13.918 2.5 17.5 6.082 17.5 10.5 L 17.5 11" fill="rgba(178, 229, 255, 0.75)" stroke="rgb(0, 170, 255)"></path><g><defs><path d="M 0 1 L 3 1 L 3 4 L 0 4 Z" id="shape-id-eA6hmLr43"></path><clipPath id="shape-id-eA6hmLr43-clip"><use xlink:href="#shape-id-eA6hmLr43"></use></clipPath></defs><use xlink:href="#shape-id-eA6hmLr43" fill="hsl(0, 0%, 100%)" clip-path="url(#shape-id-eA6hmLr43-clip)" stroke-width="2" stroke="#0099FF"></use></g><g><defs><path d="M 16 1 L 19 1 L 19 4 L 16 4 Z" id="shape-id-hoLdlWX15"></path><clipPath id="shape-id-hoLdlWX15-clip"><use xlink:href="#shape-id-hoLdlWX15"></use></clipPath></defs><use xlink:href="#shape-id-hoLdlWX15" fill="hsl(0, 0%, 100%)" clip-path="url(#shape-id-hoLdlWX15-clip)" stroke-width="2" stroke="#0099FF"></use></g><path d="M 2.5 2.5 L 16.5 2.5" fill="transparent" stroke="rgb(0, 170, 255)"></path><g><defs><path d="M 9.5 0 C 10.881 0 12 1.119 12 2.5 C 12 3.881 10.881 5 9.5 5 C 8.119 5 7 3.881 7 2.5 C 7 1.119 8.119 0 9.5 0 Z" id="shape-id-nGfKEAUtu"></path><clipPath id="shape-id-nGfKEAUtu-clip"><use xlink:href="#shape-id-nGfKEAUtu"></use></clipPath></defs><use xlink:href="#shape-id-nGfKEAUtu" fill="hsl(0, 0%, 100%)" clip-path="url(#shape-id-nGfKEAUtu-clip)" stroke-width="2" stroke="#0099FF"></use></g></svg>