<svg xmlns="http://www.w3.org/2000/svg" xmlns:xlink="http://www.w3.org/1999/xlink" width="21" height="21"><g><path d="M 4 0 L 5 0 L 5 4 L 16 4 L 16 0 L 17 0 L 17 4 L 21 4 L 21 5 L 17 5 L 17 16 L 21 16 L 21 17 L 17 17 L 17 21 L 16 21 L 16 17 L 5 17 L 5 21 L 4 21 L 4 17 L 0 17 L 0 16 L 4 16 L 4 5 L 0 5 L 0 4 L 4 4 Z M 16 5 L 5 5 L 5 16 L 16 16 Z" fill="rgba(170, 221, 255, 1.00)"></path><g><defs><path d="M 3 10.5 C 3 6.91 5.91 4 9.5 4 L 11.5 4 C 15.09 4 18 6.91 18 10.5 L 18 10.5 C 18 14.09 15.09 17 11.5 17 L 9.5 17 C 5.91 17 3 14.09 3 10.5 Z" id="a1086z"></path><clipPath id="a1087z"><use xlink:href="#a1086z"></use></clipPath></defs><use xlink:href="#a1086z" fill="rgba(204, 238, 255, 1.00)" clip-path="url(#a1087z)" stroke-width="2" stroke="#09f"></use></g></g></svg>