<svg xmlns="http://www.w3.org/2000/svg" xmlns:xlink="http://www.w3.org/1999/xlink" width="19" height="19"><path d="M 0.5 15.5 L 7 9" fill="transparent" stroke="#FFFFFF" stroke-linecap="round" stroke-linejoin="round"></path><g><defs><path d="M 9.5 3 C 11.433 3 13 4.567 13 6.5 C 13 8.433 11.433 10 9.5 10 C 7.567 10 6 8.433 6 6.5 C 6 4.567 7.567 3 9.5 3 Z" id="a1480z"></path><clipPath id="a1481z"><use xlink:href="#a1480z"></use></clipPath></defs><use xlink:href="#a1480z" fill="transparent" clip-path="url(#a1481z)" stroke-width="2" stroke="#FFFFFF"></use></g><path d="M 1.5 5 C 2.328 5 3 5.672 3 6.5 C 3 7.328 2.328 8 1.5 8 C 0.672 8 0 7.328 0 6.5 C 0 5.672 0.672 5 1.5 5 Z" fill="rgb(255, 255, 255)"></path><path d="M 17.5 5 C 18.328 5 19 5.672 19 6.5 C 19 7.328 18.328 8 17.5 8 C 16.672 8 16 7.328 16 6.5 C 16 5.672 16.672 5 17.5 5 Z" fill="rgb(255, 255, 255)"></path><path d="M 2.5 6.5 L 6.5 6.5" fill="transparent" stroke="rgba(255, 255, 255, 1.00)"></path><path d="M 12 9 L 18.5 15.5" fill="transparent" stroke="#FFFFFF" stroke-linecap="round" stroke-linejoin="round"></path><path d="M 12.5 6.5 L 16.5 6.5" fill="transparent" stroke="rgba(255, 255, 255, 1.00)"></path></svg>